<?xml version="1.0" encoding="UTF-8" standalone="no"?>
<!-- Created with Inkscape (http://www.inkscape.org/) -->

<svg
   xmlns:dc="http://purl.org/dc/elements/1.1/"
   xmlns:cc="http://creativecommons.org/ns#"
   xmlns:rdf="http://www.w3.org/1999/02/22-rdf-syntax-ns#"
   xmlns:svg="http://www.w3.org/2000/svg"
   xmlns="http://www.w3.org/2000/svg"
   xmlns:sodipodi="http://sodipodi.sourceforge.net/DTD/sodipodi-0.dtd"
   xmlns:inkscape="http://www.inkscape.org/namespaces/inkscape"
   width="264.71606mm"
   height="345.60373mm"
   viewBox="0 0 264.71606 345.60372"
   version="1.1"
   id="svg8"
   inkscape:version="0.92.3 (2405546, 2018-03-11)"
   sodipodi:docname="wina-logo.svg">
  <defs
     id="defs2" />
  <sodipodi:namedview
     id="base"
     pagecolor="#ffffff"
     bordercolor="#666666"
     borderopacity="1.0"
     inkscape:pageopacity="0.0"
     inkscape:pageshadow="2"
     inkscape:zoom="0.25"
     inkscape:cx="1080.4322"
     inkscape:cy="720.69307"
     inkscape:document-units="mm"
     inkscape:current-layer="layer1"
     showgrid="false"
     fit-margin-top="0"
     fit-margin-left="0"
     fit-margin-right="0"
     fit-margin-bottom="0"
     inkscape:window-width="2560"
     inkscape:window-height="1377"
     inkscape:window-x="-8"
     inkscape:window-y="-8"
     inkscape:window-maximized="1"
     showguides="false" />
  <metadata
     id="metadata5">
    <rdf:RDF>
      <cc:Work
         rdf:about="">
        <dc:format>image/svg+xml</dc:format>
        <dc:type
           rdf:resource="http://purl.org/dc/dcmitype/StillImage" />
        <dc:title></dc:title>
      </cc:Work>
    </rdf:RDF>
  </metadata>
  <g
     inkscape:label="Laag 1"
     inkscape:groupmode="layer"
     id="layer1"
     transform="translate(2.5808424,-34.040704)">
    <g
       id="g5195"
       transform="translate(-360.73034,-61.38847)">
      <path
         style="fill:#fdfd00;stroke-width:0.26458335"
         d="M 491.49805,298.62169 V 158.09096 h 64.8299 64.82991 l -0.0863,80.76407 -0.0863,80.76406 -0.70253,4.63021 c -1.85148,12.20249 -3.55043,19.31559 -6.67692,27.95471 -4.22901,11.68561 -10.64931,23.91021 -17.25432,32.85315 -16.15616,21.87488 -37.37074,37.67434 -62.62736,46.64149 -11.77275,4.17981 -24.81977,6.66361 -38.19124,7.2706 l -4.03489,0.18317 z m 48.51318,41.40319 c 1.14232,-0.47729 2.31731,-1.9322 2.96016,-3.66535 0.40997,-1.10527 0.50916,-1.99842 0.47814,-4.30502 -0.0335,-2.49183 -0.17128,-3.34804 -0.95785,-5.95313 -1.16258,-3.85037 -1.73526,-5.36211 -2.64366,-6.97864 -0.39874,-0.70955 -0.72497,-1.4032 -0.72497,-1.54145 0,-0.67526 6.08541,-7.35491 6.70061,-7.35491 0.0807,0 1.1362,0.51287 2.34549,1.13971 5.81615,3.01484 9.16981,4.05602 12.33504,3.82955 3.16582,-0.22652 6.33648,-2.1142 6.8258,-4.06382 0.54999,-2.19134 -0.72248,-4.77967 -2.90089,-5.90072 -1.1345,-0.58384 -1.6897,-0.67131 -4.89237,-0.77076 -5.01812,-0.15583 -7.79914,0.34758 -11.21903,2.03083 l -2.5793,1.26952 -1.65403,-1.13233 c -0.90972,-0.62278 -2.42794,-1.84507 -3.37382,-2.7162 l -1.71979,-1.58387 0.50167,-0.8796 c 2.67891,-4.69701 4.06431,-9.1571 5.08108,-16.35773 0.66379,-4.70088 0.70183,-7.10535 0.37256,-23.54852 -0.17524,-8.75091 -0.2375,-15.99186 -0.13835,-16.091 0.0991,-0.0991 1.09307,-0.1796 2.20873,-0.17879 1.79683,0.001 2.15701,0.0885 3.15404,0.76348 1.3297,0.90021 2.58694,3.25722 2.83794,5.32046 l 0.16094,1.32292 -1.20102,0.75107 c -2.19233,1.371 -3.0446,3.43278 -2.14116,5.17983 0.70555,1.3644 2.68797,1.93346 3.72815,1.07018 0.51997,-0.43153 1.12185,-2.50592 1.32906,-4.58063 0.17084,-1.71052 0.22772,-1.83264 1.00725,-2.16272 0.79539,-0.33678 0.83242,-0.32345 0.99333,0.35768 0.0919,0.38913 0.18335,1.42188 0.20318,2.295 0.10559,4.65004 2.37802,14.88847 6.37159,28.70729 0.27336,0.94589 0.68746,2.65447 0.92023,3.79686 0.47928,2.35215 0.74728,1.52493 -2.06278,6.367 -2.09428,3.6087 -2.20353,5.64183 -0.38537,7.17171 1.65903,1.39597 3.3625,0.60206 4.62494,-2.15547 0.65019,-1.42019 0.67325,-1.63216 0.52517,-4.82703 -0.0852,-1.83789 -0.2239,-3.63926 -0.30826,-4.00307 -0.11614,-0.50084 0.36728,-1.62513 1.99087,-4.6302 1.17935,-2.18282 2.56443,-4.92125 3.07798,-6.08542 0.99785,-2.26205 3.10495,-7.95713 3.42057,-9.24515 l 0.19077,-0.77847 0.35798,1.17535 c 0.90653,2.97639 2.80472,10.72304 3.28557,13.40864 l 0.53229,2.97288 -1.59035,2.98657 c -1.80005,3.38036 -2.53552,5.77692 -2.26474,7.37967 0.30461,1.80297 2.39317,3.66405 4.1119,3.66405 0.99069,0 2.02011,-1.427 2.47628,-3.43265 0.52923,-2.32682 0.52601,-3.45021 -0.0197,-6.89406 l -0.44152,-2.78608 1.23914,-1.62936 c 3.82914,-5.03499 4.99173,-8.54289 6.11901,-18.46306 0.23151,-2.03729 0.4852,-4.03277 0.56375,-4.4344 l 0.14282,-0.73024 0.75379,0.53675 c 0.76003,0.54119 3.97897,1.84977 4.5502,1.84977 0.42784,0 -0.87446,-1.32751 -3.27101,-3.33435 l -2.02485,-1.69557 -0.10688,-4.69494 c -0.0979,-4.29992 -0.16949,-4.87767 -0.85089,-6.86688 -0.78667,-2.29651 -2.01363,-4.0281 -3.34033,-4.71416 -0.98549,-0.50962 -2.74808,-0.50105 -3.265,0.0159 -0.50091,0.50091 -0.95147,2.06211 -0.95344,3.30368 -0.004,2.2932 1.91198,7.13318 4.24501,10.72541 l 1.04083,1.60261 -0.25837,3.29218 c -0.31541,4.01911 -0.8813,7.84238 -1.60338,10.83281 -1.08821,4.50676 -3.49912,10.91015 -3.78545,10.05417 -0.073,-0.21828 -0.44486,-1.64703 -0.82633,-3.175 -2.33644,-9.35868 -2.8629,-11.40663 -3.30189,-12.84445 -0.47882,-1.56825 -0.47794,-1.65397 0.0449,-4.36562 0.75273,-3.90381 0.8217,-13.06682 0.11728,-15.58239 -0.64313,-2.29669 -1.2801,-3.4766 -2.41459,-4.47269 -1.9004,-1.66858 -3.49089,-0.91504 -4.13397,1.95856 -0.26833,1.19903 -0.25165,1.77931 0.10031,3.48957 0.23218,1.12827 0.72976,3.59921 1.10571,5.49098 1.04021,5.23418 1.48045,7.28944 1.85207,8.64627 0.33899,1.23773 0.33848,1.23964 -3.15274,11.77395 -1.92049,5.79482 -3.65172,10.83369 -3.84719,11.19749 -0.32901,0.61234 -0.39913,0.4051 -0.94439,-2.79126 -1.01389,-5.94353 -2.13037,-10.61401 -4.17191,-17.45215 -2.28029,-7.63782 -2.79176,-9.85008 -2.88587,-12.48211 l -0.068,-1.90156 1.11066,-0.9515 c 1.39809,-1.19774 2.87572,-3.60731 3.25789,-5.31264 0.57667,-2.57322 -0.55038,-4.56489 -2.72169,-4.80963 -1.02174,-0.11516 -1.27893,-0.0305 -2.10168,0.69189 -1.28358,1.127 -1.53779,2.3266 -1.35198,6.37979 l 0.15162,3.30729 -0.95993,0.50554 c -0.52797,0.27804 -0.99855,0.45664 -1.04574,0.39687 -0.0472,-0.0598 -0.23283,-0.78977 -0.41253,-1.62225 -0.45498,-2.10773 -1.73584,-4.54617 -2.89068,-5.50314 -1.36398,-1.13027 -3.29341,-1.64628 -5.33968,-1.42804 l -1.64438,0.17537 0.15001,-1.02467 c 0.0825,-0.56358 0.22274,-1.67952 0.31163,-2.47989 0.0889,-0.80036 0.39875,-2.74948 0.68856,-4.33138 0.28981,-1.58189 0.46277,-3.04333 0.38437,-3.24764 -0.0989,-0.25783 -0.36692,-0.31902 -0.87596,-0.20001 -1.73671,0.40604 -4.14251,1.30738 -7.48029,2.80254 -5.92356,2.65345 -9.97799,3.57807 -14.45092,3.29556 -5.47968,-0.34611 -8.40246,-2.7588 -8.40246,-6.93605 0,-3.16273 2.49163,-6.40837 6.38002,-8.31072 1.51174,-0.7396 2.16241,-0.89514 4.19856,-1.00367 4.93746,-0.26318 13.58177,1.04804 24.18105,3.66794 5.70076,1.4091 9.19295,1.86875 14.55209,1.9154 4.13153,0.036 5.63376,-0.0531 7.54062,-0.44715 4.53158,-0.93641 7.71884,-2.27548 10.0458,-4.22058 1.10056,-0.91996 3.76408,-4.32522 3.54602,-4.53352 -0.0539,-0.0515 -0.87197,0.38436 -1.81786,0.96862 -2.94073,1.81644 -6.9088,3.59741 -9.39271,4.21569 -2.00963,0.50023 -3.08318,0.59119 -6.87916,0.58287 -6.05993,-0.0133 -8.69127,-0.52287 -22.48959,-4.35533 -8.0141,-2.2259 -14.98673,-2.60236 -20.90208,-1.12851 -2.46774,0.61485 -6.23367,2.55686 -7.88508,4.06615 -1.8463,1.68742 -2.71282,3.16108 -3.37029,5.73175 -0.97147,3.79842 -0.52782,6.50888 1.40052,8.55652 1.10882,1.17741 2.36687,1.78688 5.65586,2.74 3.79468,1.09966 4.78731,1.08117 11.21045,-0.2089 2.898,-0.58206 4.75843,-1.19487 6.88215,-2.26692 1.95265,-0.98569 5.03851,-2.18894 5.19989,-2.02756 0.0596,0.0596 -0.18697,1.34424 -0.54799,2.85468 -0.36103,1.51045 -0.82002,3.51952 -1.01997,4.46461 l -0.36356,1.71834 -1.85865,1.05978 c -2.64877,1.5103 -4.35877,2.84095 -6.06095,4.71639 -4.32211,4.76205 -7.50856,11.68394 -8.72354,18.95005 -0.65738,3.93145 -0.42047,10.48836 0.50723,14.03814 1.84625,7.0646 4.68616,12.57515 9.10156,17.66066 1.38785,1.59848 1.62065,2.00128 1.39755,2.41814 -0.39318,0.73466 -3.53786,3.55229 -4.60753,4.12835 l -0.92251,0.4968 -1.80695,-0.81073 c -4.50361,-2.02067 -9.41369,-2.81603 -13.71319,-2.22135 -4.04504,0.55948 -6.18634,1.7574 -6.69028,3.74278 -0.64848,2.55479 0.99368,4.39312 5.14032,5.75439 3.80048,1.24764 6.85817,0.88411 11.60412,-1.37962 l 2.38125,-1.13581 0.92605,0.73293 c 2.38381,1.88673 7.14375,7.17923 7.14375,7.94304 0,0.12828 -0.30253,1.27684 -0.67228,2.55235 -1.25218,4.31949 -1.42344,10.33034 -0.39489,13.8596 0.87218,2.99273 3.53636,4.41725 6.18868,3.30904 z m -3.26356,-1.97067 c -2.00245,-2.00245 -2.75985,-8.33267 -1.51097,-12.62836 0.98055,-3.37274 1.00452,-3.38414 2.09473,-0.99661 1.91245,4.18821 3.32985,9.84115 3.02967,12.08304 -0.28983,2.16451 -2.18299,2.97236 -3.61343,1.54193 z m -0.0194,-24.0748 c -0.47968,-0.68172 -1.79797,-2.14301 -2.92953,-3.24732 l -2.05739,-2.00784 1.64032,-1.15478 c 0.90217,-0.63514 2.19334,-1.67095 2.86925,-2.30181 l 1.22893,-1.14703 1.218,1.05417 c 0.66989,0.57979 2.12179,1.6852 3.22644,2.45646 l 2.00844,1.4023 -0.88152,0.66256 c -1.48617,1.117 -3.42893,2.98073 -4.46495,4.28329 l -0.98585,1.23949 z M 516.1043,312.6917 c -2.86214,-0.34202 -6.35,-1.88746 -6.35,-2.81363 0,-0.61358 0.81557,-1.49425 2.06272,-2.22737 1.10972,-0.65234 1.48825,-0.72884 3.49353,-0.70608 2.62065,0.0298 4.64586,0.63521 7.64753,2.28628 l 1.95899,1.07755 -1.42982,0.73987 c -2.62349,1.35756 -5.12158,1.91361 -7.38295,1.64338 z m 41.14271,-0.002 c -2.19249,-0.50375 -8.91077,-3.26601 -9.06439,-3.72687 -0.1,-0.29986 3.0242,-1.72533 5.00407,-2.28322 1.95089,-0.54973 3.95415,-0.52776 7.36761,0.0808 3.08991,0.55088 4.56169,1.25229 5.1942,2.47543 0.38354,0.74169 0.37628,0.84578 -0.10385,1.48951 -0.28392,0.38066 -1.14227,1.01953 -1.90745,1.41971 -1.22565,0.641 -1.6632,0.72395 -3.67613,0.69691 -1.25669,-0.0169 -2.52302,-0.0854 -2.81406,-0.15227 z m 5.30667,-12.84049 c -0.5474,-0.78152 -0.51125,-1.69868 0.11761,-2.98384 0.69695,-1.42431 2.28212,-3.58249 2.48344,-3.38116 0.0891,0.0891 0.16207,1.39779 0.16207,2.90812 0,2.56279 -0.0433,2.7894 -0.64943,3.39549 -0.80693,0.80693 -1.57586,0.82926 -2.11369,0.0614 z m -26.50991,-1.55709 c -4.39677,-6.79672 -6.80213,-14.81441 -7.162,-23.87281 -0.23587,-5.93714 0.53462,-10.36217 2.69577,-15.48222 2.22439,-5.26986 4.63618,-8.949 7.12509,-10.86918 1.75438,-1.35349 2.02776,-1.36635 1.79285,-0.0843 -0.47435,2.58877 -0.16344,14.28516 0.5433,20.43907 0.19162,1.66843 0.32189,6.68847 0.32614,12.5677 l 0.007,9.78959 -0.75628,2.24896 c -0.60803,1.80813 -2.8232,6.69179 -3.22393,7.10762 -0.051,0.0529 -0.65759,-0.7771 -1.34803,-1.84442 z m 41.96647,-0.17005 c -0.76194,-0.96561 -0.57279,-2.37025 0.64069,-4.75776 1.54791,-3.04552 1.55783,-3.0493 2.14448,-0.81736 0.62906,2.39332 0.64366,4.69531 0.0357,5.62322 -0.63588,0.97047 -2.03595,0.9466 -2.82084,-0.0481 z m -3.24217,-38.29843 c -0.19836,-0.61008 -0.95444,-4.22628 -1.78968,-8.55972 -0.63609,-3.30014 -0.60626,-5.62047 0.0811,-6.30781 0.38478,-0.38477 0.48996,-0.34524 1.22627,0.46093 1.60385,1.75598 1.91251,4.07048 1.32411,9.92887 -0.39859,3.96856 -0.62161,5.15489 -0.84178,4.47773 z M 551.21823,257.94 c -0.52827,-0.52827 -0.15272,-1.7922 0.7993,-2.69007 l 0.98824,-0.93203 0.21974,0.92916 c 0.12086,0.51104 0.11578,1.33311 -0.0113,1.82683 -0.19005,0.73845 -0.37079,0.91162 -1.01904,0.97635 -0.43341,0.0433 -0.87304,-0.006 -0.97695,-0.11024 z m 34.5342,-3.47418 c -1.60461,-3.03342 -2.55877,-7.40942 -1.8294,-8.39005 0.33004,-0.44372 0.48358,-0.47415 1.06225,-0.21049 1.37047,0.62443 1.57966,1.34714 1.71122,5.9121 0.0667,2.31539 0.0627,4.2098 -0.009,4.2098 -0.0717,0 -0.49245,-0.68461 -0.93508,-1.52136 z m -27.14709,-6.74133 c -0.0922,-0.88249 -0.16771,-2.23526 -0.16771,-3.00616 0,-2.48865 1.76847,-3.62677 2.7436,-1.76568 0.29258,0.55842 0.30012,0.9151 0.0401,1.90006 -0.38067,1.44223 -1.05086,2.80117 -1.8595,3.77049 l -0.58882,0.70582 z m 48.53412,72.22092 c 1.05695,-0.71229 1.49174,-1.92409 1.13574,-3.16542 -0.26346,-0.9186 -1.66958,-2.05531 -2.54243,-2.05531 -0.85747,0 -2.21712,0.77612 -2.5943,1.48089 -0.44467,0.83088 -0.41647,2.36564 0.0539,2.93536 0.53917,0.65301 1.87429,1.40248 2.50038,1.40359 0.3059,5.3e-4 0.95691,-0.26906 1.44668,-0.59911 z m -0.72173,-19.1775 c 0.44061,-0.71819 0.52324,-3.15611 1.10078,-32.47761 0.17653,-8.96245 0.38746,-17.26342 0.53114,-20.90208 0.24625,-6.23616 0.18929,-13.28481 -0.11189,-13.84757 -0.77168,-1.44191 -2.52629,-1.4913 -3.87926,-0.1092 l -0.97128,0.99219 0.1772,7.40833 c 0.0974,4.07458 0.22643,8.71802 0.2866,10.31875 0.0602,1.60073 0.23457,8.56588 0.38754,15.47812 0.15298,6.91224 0.33688,14.41318 0.40868,16.66875 0.0718,2.25558 0.20575,6.66016 0.29769,9.78797 0.12791,4.352 0.25896,5.82704 0.55827,6.28385 0.38637,0.58968 0.97813,0.78384 1.21453,0.3985 z m -212.3499,25.92916 c -0.22558,-0.25466 -1.24987,-3.49911 -2.2762,-7.20989 -4.45273,-16.09916 -5.32608,-19.30027 -5.81095,-21.29896 -0.28243,-1.16417 -1.4702,-5.56948 -2.63951,-9.78958 -3.27482,-11.81908 -5.71971,-20.81936 -6.6966,-24.65201 -0.87232,-3.42236 -0.87938,-3.49526 -0.39103,-4.03489 1.04927,-1.15943 1.69181,-0.48459 2.62575,2.75773 0.75445,2.61922 3.18346,11.4695 5.73669,20.90208 3.74223,13.82515 4.90582,18.09333 6.92451,25.4 1.16594,4.22011 2.2624,8.20476 2.43659,8.85479 0.39766,1.48402 0.57556,1.19356 0.8049,-1.31416 0.19658,-2.1495 1.85872,-14.94766 5.84161,-44.97917 1.39922,-10.55026 2.65461,-20.31339 2.78976,-21.69583 0.37518,-3.83756 2.02114,-15.80585 2.2174,-16.1234 0.12092,-0.19566 10.67332,-0.28077 34.80902,-0.28077 33.9723,0 34.64073,0.01 34.90938,0.51177 0.3891,0.72704 0.73355,0.78144 -0.25527,1.6049 -0.52358,0.52358 -0.88194,0.52916 -33.94459,0.52916 h -33.41543 l -2.18462,16.86719 c -3.68391,28.44315 -6.06619,46.70335 -7.87881,60.39115 -1.73478,13.10002 -1.92416,14.02291 -2.8776,14.02291 -0.17317,0 -0.49942,-0.20836 -0.725,-0.46302 z m 22.38681,-23.7447 c -1.29182,-0.77436 -1.95035,-2.00345 -1.95035,-3.64018 0,-1.48854 0.3446,-2.4877 1.6971,-4.92069 2.04142,-3.67227 5.64261,-7.73033 11.66202,-13.14149 3.94363,-3.54513 5.20599,-4.80097 4.23568,-4.2138 -0.43657,0.26418 -1.78011,1.23272 -2.98565,2.15231 -4.98414,3.80192 -10.84375,5.73756 -14.65225,4.84018 -3.24948,-0.76566 -6.00532,-2.89407 -7.25696,-5.60473 -0.67017,-1.45139 -0.76948,-1.97499 -0.76783,-4.04825 0.002,-2.6739 0.40741,-3.75075 2.04461,-5.43252 1.88272,-1.934 6.34657,-3.4323 10.21877,-3.42996 2.23129,10e-4 5.91132,0.5954 8.70995,1.40599 1.37284,0.39764 2.17423,0.52281 2.17152,0.33918 -0.002,-0.16006 -0.86557,-0.88634 -1.91823,-1.61394 -1.05267,-0.72761 -2.87033,-2.27542 -4.03926,-3.43958 -3.13591,-3.12313 -4.2676,-5.81721 -4.03243,-9.5995 0.19642,-3.15902 1.40919,-5.99194 3.52556,-8.2354 3.25756,-3.45319 6.85767,-4.61106 11.17334,-3.59357 2.16687,0.51087 3.3503,1.13375 5.03937,2.65236 2.71092,2.43735 3.63651,5.17343 3.39811,10.04486 -0.16626,3.39705 -0.75464,5.95682 -2.43441,10.59084 -0.66882,1.84508 -1.16593,3.4048 -1.10469,3.46604 0.0612,0.0612 1.01282,-1.29056 2.11463,-3.00402 4.79652,-7.45924 9.48346,-11.81947 13.32419,-12.39542 3.69478,-0.55407 8.61822,3.75089 9.76121,8.53499 0.74733,3.12806 0.35287,7.68458 -0.9036,10.43771 -0.84412,1.84959 -2.76273,4.31296 -4.04766,5.19691 -3.24554,2.23275 -7.69134,2.24332 -12.85353,0.0305 -0.65901,-0.28249 -1.25246,-0.45935 -1.31878,-0.39303 -0.0663,0.0663 0.78894,1.16091 1.90058,2.43243 6.38669,7.30525 7.99147,11.70842 5.76092,15.80668 -1.51587,2.78516 -4.42413,4.38543 -7.28172,4.00676 -4.70666,-0.62369 -7.9133,-2.94693 -9.85439,-7.13961 -1.26519,-2.73278 -1.57019,-4.49144 -1.54865,-8.92969 0.0104,-2.14643 -0.0558,-3.9026 -0.14715,-3.9026 -0.0913,0 -1.35162,1.31623 -2.80062,2.92496 -1.449,1.60873 -3.5858,3.78162 -4.74846,4.82865 -3.46969,3.12461 -5.16128,4.99488 -5.90968,6.53389 -0.63972,1.31552 -0.70637,1.73457 -0.69434,4.36562 0.007,1.60073 0.11304,3.5928 0.23494,4.42682 0.16208,1.1089 0.13202,1.62439 -0.11185,1.91823 -0.52263,0.62974 -2.34652,0.4994 -3.61001,-0.25798 z m 25.66486,-22.68403 c 0.58181,-0.92236 -2.4342,-4.40019 -3.84054,-4.42862 -0.57181,-0.0116 -0.84935,0.75045 -0.44902,1.23281 0.17381,0.20944 0.6399,0.54827 1.03574,0.75297 0.39585,0.2047 1.09328,0.97929 1.54986,1.72132 0.83339,1.35444 1.20537,1.51195 1.70396,0.72152 z m -14.72912,-6.16961 c 1.24812,-1.76927 1.23803,-1.76263 2.73649,-1.80188 1.2639,-0.0331 1.45317,-0.10888 1.52462,-0.61039 0.0974,-0.68361 -0.49027,-0.92671 -2.24019,-0.92671 -1.34204,0 -2.28451,0.68304 -3.14361,2.27831 -0.81739,1.51779 0.15329,2.43484 1.12269,1.06067 z m 17.14412,-3.44788 c 1.16473,-0.78837 1.45521,-1.12016 1.45521,-1.66211 0,-0.75037 -0.83475,-0.74729 -1.85477,0.007 -0.57188,0.42281 -1.17584,0.57884 -2.30439,0.59531 -1.449,0.0211 -1.52938,0.0571 -1.52938,0.68378 0,0.54855 0.15806,0.68924 0.92604,0.82425 1.18072,0.20756 2.62844,0.0114 3.30729,-0.44808 z m -9.13743,-2.74003 c 0.36146,-0.6754 0.34914,-2.28696 -0.023,-3.01135 -0.53396,-1.03931 -1.64167,-2.03313 -2.26613,-2.03313 -0.88661,0 -0.79431,0.94027 0.18179,1.85209 0.67443,0.63001 0.79375,0.93764 0.79375,2.04643 0,0.71772 0.0794,1.38433 0.17639,1.48134 0.33267,0.33267 0.86347,0.17613 1.13722,-0.33538 z M 360.00012,126.73784 V 97.236795 H 490.572 621.14389 v 29.501045 29.50104 H 490.572 360.00012 Z m 61.1305,-5.10872 9.56008,23.97789 h 5.69748 l 13.4591,-35.18022 h -7.38962 l -8.39764,23.05528 -9.56215,-23.05528 h -5.92806 l -9.33942,23.05528 -8.88131,-23.05528 c 0,5e-5 -8.65726,0 -8.65726,0 l 13.6313,35.18022 h 5.80223 z m 48.93618,-11.20233 h -8.46667 v 35.18022 h 8.46667 z m 25.26768,10.6361 c 0,0 18.60866,16.02778 28.73775,24.54412 h 5.79037 v -35.18022 h -7.42852 l 0.1524,24.09881 c -10.92605,-9.19702 -28.7086,-24.09881 -28.7086,-24.09881 h -5.81953 v 35.18022 h 7.4374 z m 58.20836,16.92487 h 22.48959 l 4.22736,7.61925 h 9.44184 l -20.31004,-35.18022 h -8.22477 l -19.9271,35.18022 h 8.30694 z m 3.83646,-6.67794 7.68851,-13.78031 7.05547,13.78031 z"
         id="path5199"
         inkscape:connector-curvature="0"
         sodipodi:nodetypes="cccccccsssccccccccsscccccccccccssccccccccccccccsccccccccsccccscccsccccscccccccccccccccscscccssssccsccccccccccccccccccsscsccccsccscccccccscccssccscccccccsccscccccsscccccccccccccccsscccccsscccccscscscsccccsscccccccccccccccccccscccsccccccccscscccsccsccccsccccccssccccccscccsscccccsccssccsccscsssscssscssccccccccscccccscccccsssscccsscscccccsccccssccscscsccscccccscsccccccccccccccccccccccccccccccccccccccccccccccccccccccc" />
      <path
         style="fill:#010100;stroke-width:0.26458335"
         d="m 484.61888,440.78998 c -18.80021,-1.13232 -34.71471,-5.07447 -50.40313,-12.48527 -14.62839,-6.91007 -27.28908,-15.95488 -38.51202,-27.51301 -16.59132,-17.08685 -27.823,-37.35745 -33.68835,-60.79969 -2.05139,-8.19884 -3.18233,-16.43824 -3.59536,-26.19375 -0.17096,-4.03807 -0.26942,-44.84642 -0.27041,-112.0848 -10e-4,-88.58494 0.005,-106.261474 0.005,-106.261474 0,0 35.34211,-0.05038 132.70922,-0.0014 l 132.00173,-0.0049 -0.002,111.990054 V 319.3545 l -0.60363,4.23333 c -1.31861,9.24754 -2.95654,17.20288 -4.70592,22.85633 -5.30631,17.1483 -13.40612,32.46087 -24.01827,45.40617 -8.12843,9.91552 -16.15547,17.45157 -26.42953,24.81289 -13.50965,9.6796 -31.02176,17.45718 -47.43016,21.06493 -8.35813,1.83775 -14.83379,2.60472 -27.78125,3.29042 -1.01864,0.0539 -4.29286,-0.0489 -7.27604,-0.2286 z m 19.65119,-2.51505 c 18.14425,-1.97239 33.18057,-6.72196 49.80194,-15.7311 10.3189,-5.59305 21.16298,-13.91364 29.89187,-22.93583 12.05882,-12.46402 20.50344,-25.21357 27.13157,-40.96287 4.60251,-10.93616 6.97615,-19.82267 9.18733,-34.39583 l 0.70253,-4.63021 0.0863,-80.76406 0.0863,-80.76407 H 556.328 491.4981 v 140.53073 140.53073 l 4.03489,-0.18317 c 2.2192,-0.10073 6.1509,-0.41318 8.73713,-0.69432 z m 31.94784,-98.34948 c -1.77717,-0.89288 -2.50658,-2.57523 -2.95299,-6.81098 -0.34445,-3.26827 -7.9e-4,-6.96987 0.95252,-10.25823 0.36975,-1.27551 0.67228,-2.42407 0.67228,-2.55235 0,-0.76381 -4.75994,-6.05631 -7.14375,-7.94304 l -0.92605,-0.73293 -2.38125,1.13581 c -4.74595,2.26373 -7.80364,2.62726 -11.60412,1.37962 -4.14664,-1.36127 -5.7888,-3.1996 -5.14032,-5.75439 0.50394,-1.98538 2.64524,-3.1833 6.69028,-3.74278 4.2995,-0.59468 9.20958,0.20068 13.71319,2.22134 l 1.80695,0.81073 0.92251,-0.4968 c 1.06967,-0.57606 4.21435,-3.39369 4.60753,-4.12835 0.2231,-0.41686 -0.01,-0.81967 -1.39755,-2.41814 -4.4154,-5.08551 -7.25531,-10.59606 -9.10156,-17.66066 -0.9277,-3.54978 -1.16461,-10.10669 -0.50723,-14.03814 1.21498,-7.26611 4.40143,-14.188 8.72354,-18.95005 1.70218,-1.87544 3.41218,-3.20609 6.06095,-4.71639 l 1.85865,-1.05978 0.36356,-1.71834 c 0.19995,-0.94509 0.65894,-2.95416 1.01997,-4.46461 0.36102,-1.51044 0.60762,-2.79505 0.54799,-2.85468 -0.16138,-0.16138 -3.24724,1.04187 -5.19989,2.02756 -2.12372,1.07205 -3.98415,1.68486 -6.88215,2.26691 -6.42314,1.29008 -7.41577,1.30857 -11.21045,0.20891 -3.28899,-0.95312 -4.54704,-1.56259 -5.65586,-2.74 -1.92834,-2.04764 -2.37199,-4.7581 -1.40052,-8.55652 0.65747,-2.57067 1.52399,-4.04433 3.37029,-5.73175 1.65141,-1.50929 5.41734,-3.4513 7.88508,-4.06615 5.91535,-1.47385 12.88798,-1.09739 20.90208,1.12851 13.79832,3.83246 16.42966,4.34205 22.48959,4.35533 3.79598,0.008 4.86953,-0.0826 6.87916,-0.58287 2.48391,-0.61828 6.45198,-2.39925 9.39271,-4.21569 0.94589,-0.58426 1.76392,-1.02014 1.81786,-0.96862 0.21806,0.2083 -2.44546,3.61356 -3.54602,4.53352 -2.32696,1.9451 -5.51422,3.28417 -10.0458,4.22058 -1.90686,0.39403 -3.40909,0.48311 -7.54062,0.44715 -5.35914,-0.0466 -8.85133,-0.5063 -14.55209,-1.9154 -10.59928,-2.6199 -19.24359,-3.93112 -24.18105,-3.66794 -2.03615,0.10853 -2.68682,0.26407 -4.19856,1.00367 -3.88839,1.90235 -6.38002,5.14798 -6.38002,8.31072 0,4.17725 2.92278,6.58994 8.40246,6.93605 4.47293,0.28251 8.52736,-0.64211 14.45092,-3.29556 3.33778,-1.49516 5.74358,-2.3965 7.48029,-2.80254 0.50904,-0.11901 0.77703,-0.0578 0.87596,0.20001 0.0784,0.20431 -0.0946,1.66575 -0.38437,3.24764 -0.28981,1.5819 -0.59966,3.53102 -0.68856,4.33138 -0.0889,0.80037 -0.22913,1.91631 -0.31163,2.47988 l -0.15001,1.02468 1.64438,-0.17537 c 2.04627,-0.21824 3.9757,0.29777 5.33968,1.42804 1.15484,0.95697 2.4357,3.39541 2.89068,5.50314 0.1797,0.83248 0.36534,1.56249 0.41253,1.62225 0.0472,0.0598 0.51777,-0.11883 1.04574,-0.39687 l 0.95993,-0.50554 -0.15162,-3.30729 c -0.18581,-4.05319 0.0684,-5.25279 1.35198,-6.37979 0.82275,-0.72238 1.07994,-0.80705 2.10168,-0.69189 2.17131,0.24474 3.29836,2.23641 2.72169,4.80962 -0.38217,1.70534 -1.8598,4.11491 -3.25789,5.31265 l -1.11066,0.9515 0.068,1.90156 c 0.0941,2.63203 0.60558,4.84429 2.88587,12.48211 2.04154,6.83814 3.15802,11.50862 4.17191,17.45215 0.54526,3.19636 0.61538,3.4036 0.94439,2.79126 0.19547,-0.3638 1.9267,-5.40267 3.84719,-11.19749 3.49122,-10.53431 3.49173,-10.53622 3.15274,-11.77396 -0.37162,-1.35682 -0.81186,-3.41208 -1.85207,-8.64626 -0.37595,-1.89177 -0.87353,-4.36271 -1.10571,-5.49098 -0.98631,-4.79275 1.28543,-7.86112 4.03366,-5.44813 1.13449,0.99609 1.77146,2.176 2.41459,4.47269 0.70442,2.51557 0.63545,11.67858 -0.11728,15.58239 -0.52286,2.71165 -0.52374,2.79737 -0.0449,4.36562 0.43899,1.43782 0.96545,3.48577 3.30189,12.84445 0.38147,1.52797 0.75331,2.95672 0.82633,3.175 0.28633,0.85598 2.69724,-5.54742 3.78545,-10.05417 0.72208,-2.99043 1.28797,-6.8137 1.60338,-10.83281 l 0.25837,-3.29218 -1.04083,-1.60261 c -2.33303,-3.59223 -4.24864,-8.43221 -4.24501,-10.72541 0.002,-1.24157 0.45253,-2.80278 0.95344,-3.30368 0.51692,-0.51692 2.27951,-0.52549 3.265,-0.0159 1.3267,0.68606 2.55366,2.41765 3.34033,4.71416 0.6814,1.9892 0.753,2.56696 0.85089,6.86688 l 0.10688,4.69494 2.02485,1.69557 c 2.39655,2.00684 3.69885,3.33435 3.27101,3.33435 -0.57123,0 -3.79017,-1.30858 -4.55021,-1.84977 l -0.75379,-0.53675 -0.14282,0.73024 c -0.0785,0.40163 -0.33224,2.39711 -0.56375,4.4344 -1.12729,9.92017 -2.28987,13.42807 -6.11901,18.46306 l -1.23914,1.62936 0.44152,2.78608 c 0.54575,3.44385 0.54897,4.56724 0.0197,6.89406 -0.45616,2.00566 -1.48558,3.43266 -2.47627,3.43266 -1.71873,0 -3.80729,-1.86108 -4.1119,-3.66405 -0.27078,-1.60275 0.46469,-3.99931 2.26474,-7.37967 l 1.59035,-2.98657 -0.53229,-2.97288 c -0.48085,-2.6856 -2.37904,-10.43225 -3.28557,-13.40864 l -0.35798,-1.17535 -0.19077,0.77847 c -0.31562,1.28802 -2.42272,6.9831 -3.42057,9.24515 -0.51355,1.16417 -1.89863,3.9026 -3.07798,6.08542 -1.62359,3.00507 -2.10701,4.12936 -1.99087,4.6302 0.0844,0.36381 0.22307,2.16518 0.30826,4.00307 0.14808,3.19487 0.12502,3.40684 -0.52517,4.82703 -1.26244,2.75753 -2.96591,3.55144 -4.62494,2.15547 -1.81816,-1.52988 -1.70891,-3.56301 0.38537,-7.17171 2.81006,-4.84207 2.54206,-4.01485 2.06278,-6.367 -0.23277,-1.14239 -0.64687,-2.85097 -0.92023,-3.79686 -3.99357,-13.81882 -6.266,-24.05725 -6.37159,-28.70729 -0.0198,-0.87312 -0.11126,-1.90587 -0.20318,-2.295 -0.16091,-0.68113 -0.19794,-0.69446 -0.99333,-0.35768 -0.77953,0.33008 -0.83641,0.4522 -1.00725,2.16272 -0.20721,2.07471 -0.80909,4.1491 -1.32906,4.58063 -1.04018,0.86328 -3.0226,0.29422 -3.72815,-1.07018 -0.90344,-1.74705 -0.0512,-3.80883 2.14116,-5.17983 l 1.20102,-0.75107 -0.16094,-1.32292 c -0.251,-2.06324 -1.50824,-4.42025 -2.83794,-5.32046 -0.99703,-0.67498 -1.35721,-0.76217 -3.15404,-0.76348 -1.11566,-8e-4 -2.10959,0.0796 -2.20873,0.17879 -0.0992,0.0991 -0.0369,7.34009 0.13835,16.091 0.32927,16.44317 0.29123,18.84764 -0.37256,23.54852 -1.01677,7.20063 -2.40217,11.66072 -5.08108,16.35773 l -0.50167,0.8796 1.71979,1.58387 c 0.94588,0.87113 2.4641,2.09342 3.37382,2.7162 l 1.65403,1.13233 2.5793,-1.26952 c 3.41989,-1.68325 6.20091,-2.18666 11.21903,-2.03083 3.20267,0.0995 3.75787,0.18692 4.89237,0.77076 2.17841,1.12105 3.45088,3.70938 2.90089,5.90072 -0.48932,1.94962 -3.65998,3.8373 -6.8258,4.06382 -3.16523,0.22647 -6.51889,-0.81471 -12.33504,-3.82955 -1.20929,-0.62684 -2.26475,-1.13971 -2.34549,-1.13971 -0.6152,0 -6.70061,6.67965 -6.70061,7.35491 0,0.13825 0.32623,0.8319 0.72497,1.54145 0.9084,1.61653 1.48108,3.12827 2.64366,6.97864 0.78657,2.60509 0.92434,3.4613 0.95785,5.95313 0.0443,3.29633 -0.40847,4.98756 -1.78127,6.65299 -1.36057,1.65062 -3.59525,2.14998 -5.45035,1.21795 z m 3.40987,-1.75952 c 0.81957,-0.87239 0.94334,-2.24956 0.45412,-5.05309 -0.49087,-2.81304 -1.4443,-5.82312 -2.75047,-8.6836 -1.09021,-2.38753 -1.11418,-2.37613 -2.09473,0.99661 -1.63492,5.6235 0.11893,13.37553 3.02613,13.37553 0.4687,0 1.00062,-0.24763 1.36495,-0.63545 z m 1.24314,-26.61663 c 0.71433,-0.65485 1.69547,-1.48878 2.18031,-1.85318 l 0.88152,-0.66256 -2.00844,-1.4023 c -1.10465,-0.77126 -2.55655,-1.87667 -3.22644,-2.45646 l -1.218,-1.05417 -1.22893,1.14703 c -0.67591,0.63086 -1.96708,1.66667 -2.86925,2.30181 l -1.64032,1.15478 2.05739,2.00784 c 1.13156,1.10431 2.44985,2.5656 2.92953,3.24732 l 0.87214,1.23949 0.98585,-1.23949 c 0.54222,-0.68172 1.57031,-1.77527 2.28464,-2.43011 z m -20.00412,0.63059 c 0.65484,-0.21543 1.83404,-0.72463 2.62045,-1.13157 l 1.42982,-0.73987 -1.95899,-1.07755 c -3.00167,-1.65107 -5.02688,-2.25653 -7.64753,-2.28628 -2.00528,-0.0227 -2.38381,0.0537 -3.49353,0.70608 -1.24715,0.73312 -2.06272,1.61379 -2.06272,2.22737 0,0.66932 1.24006,1.4448 3.30175,2.06479 3.30244,0.99309 5.32584,1.0545 7.81075,0.23703 z m 42.8704,-0.0353 c 0.76518,-0.40018 1.62353,-1.03905 1.90745,-1.41971 0.48013,-0.64373 0.48739,-0.74782 0.10385,-1.48951 -0.63251,-1.22314 -2.10429,-1.92456 -5.1942,-2.47543 -3.41346,-0.60856 -5.41672,-0.63053 -7.36761,-0.0808 -1.97987,0.55789 -5.10403,1.98336 -5.00407,2.28322 0.15362,0.46086 6.8719,3.22312 9.06439,3.72687 0.29104,0.0669 1.55737,0.13539 2.81406,0.15227 2.01293,0.027 2.45048,-0.0559 3.67613,-0.69691 z m 0.93017,-12.35725 c 0.60609,-0.60608 0.64943,-0.8327 0.64943,-3.39548 0,-1.51033 -0.0729,-2.81899 -0.16207,-2.90812 -0.20132,-0.20133 -1.78649,1.95685 -2.48344,3.38116 -0.62886,1.28516 -0.66501,2.20232 -0.11761,2.98384 0.53783,0.76787 1.30676,0.74554 2.11369,-0.0614 z m -25.99541,-2.12869 c 0.65313,-1.30969 1.52782,-3.39328 1.94377,-4.63021 l 0.75628,-2.24895 -0.007,-9.78959 c -0.004,-5.87923 -0.13453,-10.89928 -0.32614,-12.56771 -0.70675,-6.1539 -1.01766,-17.8503 -0.54331,-20.43906 0.23491,-1.28204 -0.0385,-1.26918 -1.79285,0.0843 -2.48891,1.92018 -4.90069,5.59931 -7.12509,10.86918 -2.16115,5.12004 -2.93164,9.54508 -2.69577,15.48222 0.29037,7.30913 1.87711,13.83563 4.78356,19.6756 1.14657,2.30381 3.55915,6.21526 3.72647,6.04163 0.051,-0.0529 0.62704,-1.16773 1.28017,-2.47742 z m 42.15912,0.51112 c 0.60799,-0.92791 0.59339,-3.2299 -0.0357,-5.62322 -0.58665,-2.23194 -0.59657,-2.22816 -2.14448,0.81736 -1.21348,2.38751 -1.40263,3.79215 -0.64069,4.75776 0.78489,0.9947 2.18496,1.01857 2.82084,0.0481 z m -5.22123,-42.82426 c 0.5884,-5.85839 0.27974,-8.17289 -1.32411,-9.92887 -0.73631,-0.80617 -0.84149,-0.8457 -1.22627,-0.46093 -0.68734,0.68734 -0.71717,3.00767 -0.0811,6.30781 0.83524,4.33344 1.59132,7.94964 1.78968,8.55972 0.22017,0.67716 0.44319,-0.50917 0.84178,-4.47773 z m -22.39563,1.72798 c 0.12707,-0.49372 0.13215,-1.31579 0.0113,-1.82683 l -0.21974,-0.92916 -0.98824,0.93203 c -0.70953,0.66917 -0.98823,1.15328 -0.98823,1.71658 0,1.00023 0.1942,1.18075 1.16587,1.08373 0.64826,-0.0647 0.82899,-0.2379 1.01905,-0.97635 z M 586.6965,251.777 c -0.13156,-4.56496 -0.34075,-5.28767 -1.71122,-5.9121 -1.52333,-0.69407 -1.75267,1.47175 -0.56651,5.34996 0.50232,1.64234 1.99024,4.77194 2.26874,4.77194 0.0717,0 0.0757,-1.89441 0.009,-4.2098 z m -26.2705,-4.78604 c 0.86846,-1.69199 1.16208,-3.26218 0.75523,-4.03869 -0.97513,-1.86109 -2.7436,-0.72297 -2.7436,1.76568 0,0.7709 0.0755,2.12367 0.16771,3.00616 l 0.16771,1.60453 0.58882,-0.70582 c 0.32385,-0.3882 0.8027,-1.12253 1.06413,-1.63186 z m 43.91684,73.06689 c -1.1468,-0.70115 -1.50374,-1.22948 -1.53322,-2.26938 -0.035,-1.23589 0.50326,-2.16081 1.54537,-2.65533 1.16823,-0.55436 1.73591,-0.51537 2.78447,0.19126 1.68447,1.13516 1.68447,3.48547 0,4.62063 -1.07765,0.72623 -1.74904,0.75331 -2.79662,0.11282 z m 0.86036,-19.68882 c -0.29931,-0.45681 -0.43036,-1.93185 -0.55827,-6.28385 -0.0919,-3.12781 -0.22589,-7.53239 -0.29769,-9.78797 -0.0718,-2.25557 -0.2557,-9.75651 -0.40868,-16.66875 -0.15297,-6.91224 -0.32737,-13.87739 -0.38754,-15.47812 -0.0602,-1.60073 -0.18915,-6.24417 -0.2866,-10.31875 l -0.1772,-7.40833 0.97128,-0.99219 c 1.35297,-1.3821 3.10758,-1.33271 3.87926,0.1092 0.30118,0.56276 0.35814,7.61141 0.11189,13.84757 -0.14368,3.63866 -0.35461,11.93963 -0.53114,20.90208 -0.57754,29.3215 -0.66017,31.75942 -1.10078,32.47761 -0.2364,0.38534 -0.82816,0.19118 -1.21453,-0.3985 z m -209.68132,26.32766 c 0.47909,-0.53557 1.36306,-7.05474 10.02736,-73.95104 l 2.18462,-16.86719 h 33.41543 c 33.06265,0 33.42101,-0.006 33.94459,-0.52916 0.60021,-0.60022 0.78272,-1.09899 0.0331,-1.58151 -0.92924,-0.59815 -0.71491,-0.44162 -34.68721,-0.53516 -24.1357,0 -34.6881,0.0851 -34.80902,0.28077 -0.19626,0.31755 -1.84222,12.28584 -2.2174,16.1234 -0.13515,1.38244 -1.39054,11.14557 -2.78976,21.69583 -3.98289,30.03151 -5.64503,42.82967 -5.84161,44.97917 -0.22934,2.50772 -0.40724,2.79818 -0.8049,1.31416 -0.17419,-0.65003 -1.27065,-4.63468 -2.43659,-8.85479 -2.01869,-7.30667 -3.18228,-11.57485 -6.92451,-25.4 -2.55323,-9.43258 -4.98224,-18.28286 -5.73669,-20.90208 -0.93394,-3.24232 -1.57648,-3.91716 -2.62575,-2.75773 -0.48835,0.53963 -0.48129,0.61253 0.39103,4.03489 0.97689,3.83265 3.42178,12.83293 6.6966,24.65201 1.16931,4.2201 2.35708,8.62541 2.63951,9.78958 0.48487,1.99869 1.35822,5.1998 5.81095,21.29896 1.76854,6.39428 2.26866,7.67291 3.0012,7.67291 0.17318,0 0.50125,-0.20836 0.72905,-0.46302 z m 24.54277,-23.48672 c 0.24387,-0.29384 0.27393,-0.80933 0.11185,-1.91823 -0.1219,-0.83402 -0.22763,-2.82609 -0.23494,-4.42682 -0.012,-2.63105 0.0546,-3.0501 0.69434,-4.36562 0.7484,-1.53901 2.43999,-3.40928 5.90968,-6.53389 1.16266,-1.04703 3.29946,-3.21992 4.74846,-4.82865 1.449,-1.60873 2.70928,-2.92496 2.80062,-2.92496 0.0914,0 0.15756,1.75617 0.14715,3.9026 -0.0215,4.43825 0.28346,6.19691 1.54865,8.92969 1.5551,3.35895 3.74216,5.3852 6.96825,6.45588 3.61069,1.19832 6.14014,0.89353 8.29006,-0.9989 2.38006,-2.09501 3.28131,-4.92991 2.51644,-7.9155 -0.79256,-3.09365 -2.35798,-5.59245 -6.39956,-10.21531 -1.11164,-1.27152 -1.9669,-2.36611 -1.90058,-2.43243 0.0663,-0.0663 0.65977,0.11054 1.31878,0.39303 3.77892,1.61983 7.86152,2.0987 10.38607,1.21822 3.53446,-1.23269 6.44361,-4.85773 7.43062,-9.25916 0.46054,-2.05369 0.45489,-5.67039 -0.0119,-7.62423 -1.14299,-4.7841 -6.06643,-9.08906 -9.7612,-8.53499 -3.84074,0.57595 -8.52767,4.93618 -13.3242,12.39542 -1.1018,1.71346 -2.05338,3.06526 -2.11463,3.00402 -0.0612,-0.0612 0.43587,-1.62096 1.10469,-3.46604 1.67977,-4.63402 2.26816,-7.19379 2.43441,-10.59084 0.2384,-4.87143 -0.68719,-7.60751 -3.39811,-10.04486 -1.68907,-1.51861 -2.8725,-2.14149 -5.03937,-2.65236 -4.31567,-1.01749 -7.91578,0.14038 -11.17334,3.59357 -2.11637,2.24346 -3.32914,5.07638 -3.52556,8.2354 -0.23517,3.78229 0.89652,6.47637 4.03243,9.5995 1.16893,1.16416 2.9866,2.71197 4.03926,3.43958 1.05266,0.7276 1.91586,1.45388 1.91823,1.61394 0.003,0.18363 -0.79868,0.0585 -2.17152,-0.33918 -2.79863,-0.81059 -6.47865,-1.40464 -8.70995,-1.40599 -3.8722,-0.002 -8.33604,1.49596 -10.21877,3.42996 -1.63719,1.68177 -2.04248,2.75862 -2.04461,5.43252 -0.002,2.07326 0.0977,2.59686 0.76783,4.04825 1.25164,2.71066 4.00748,4.83907 7.25696,5.60473 3.8085,0.89738 9.66812,-1.03826 14.65225,-4.84018 1.20554,-0.91959 2.54909,-1.88813 2.98565,-2.15231 0.97031,-0.58717 -0.29204,0.66867 -4.23567,4.2138 -6.01941,5.41116 -9.62061,9.46922 -11.66202,13.14149 -1.35251,2.43299 -1.69711,3.43215 -1.69711,4.92069 0,1.63673 0.65853,2.86582 1.95035,3.64018 1.26349,0.75738 3.08738,0.88772 3.61001,0.25798 z m 20.35089,-23.66353 c -0.45658,-0.74203 -1.15401,-1.51662 -1.54986,-1.72132 -0.39584,-0.2047 -0.86193,-0.54353 -1.03574,-0.75297 -0.40033,-0.48236 -0.12279,-1.24438 0.44902,-1.23281 1.40634,0.0284 4.42235,3.50626 3.84054,4.42862 -0.49859,0.79043 -0.87057,0.63292 -1.70396,-0.72152 z m -14.45174,-5.20565 c -0.20539,-0.53524 0.53248,-1.94406 1.50742,-2.87812 0.57525,-0.55111 0.99506,-0.7033 1.94008,-0.7033 1.74992,0 2.33757,0.2431 2.24019,0.92671 -0.0715,0.50151 -0.26072,0.57729 -1.52462,0.61039 -1.49846,0.0392 -1.48837,0.0326 -2.73649,1.80188 -0.54186,0.7681 -1.18305,0.87707 -1.42658,0.24244 z m 15.26341,-3.24224 c -0.76798,-0.13501 -0.92604,-0.2757 -0.92604,-0.82425 0,-0.6267 0.0804,-0.66264 1.52938,-0.68379 1.12855,-0.0165 1.73251,-0.1725 2.30439,-0.59531 1.02002,-0.75413 1.85477,-0.75721 1.85477,-0.007 0,0.54195 -0.29048,0.87374 -1.45521,1.66211 -0.67885,0.4595 -2.12657,0.65564 -3.30729,0.44807 z m -6.96736,-2.85273 c -0.097,-0.097 -0.17639,-0.76362 -0.17639,-1.48134 0,-1.10879 -0.11932,-1.41642 -0.79375,-2.04643 -0.97611,-0.91182 -1.0684,-1.85209 -0.18179,-1.85209 0.62446,0 1.73217,0.99382 2.26613,2.03313 0.80702,1.57081 -0.11641,4.34453 -1.1142,3.34673 z M 621.14389,126.73784 V 97.236795 H 490.572 360.00012 v 29.501045 29.50104 H 490.572 621.14389 Z M 391.69182,110.42641 h 8.65726 l 8.88131,23.05572 9.33942,-23.05572 h 5.92806 l 9.56215,23.05572 8.39764,-23.05572 h 7.38962 l -13.4591,35.17086 h -5.69748 l -9.56008,-23.96808 -10.00527,23.96808 h -5.80223 z m 69.90831,0 h 8.46667 v 35.17086 h -8.46667 z m 26.45833,0 h 5.81953 c 28.70849,24.32422 0,-0.22504 28.7086,24.09918 -1.1e-4,0 -0.1524,-24.09918 -0.1524,-24.09918 h 7.42852 v 35.17086 h -5.79037 c -9.75956,-8.20908 -28.73775,-24.53439 -28.73775,-24.53439 l 0.1614,24.53439 h -7.4374 z m 53.18126,35.17086 19.9271,-35.17086 c 0,0 8.22477,8.1e-4 8.22477,0 l 20.31004,35.17086 h -9.44184 c 0,8.7e-4 -4.22736,-7.60739 -4.22736,-7.60739 l -22.48959,-0.006 -3.99618,7.61339 z m 23.82809,-28.06777 -7.68851,13.78031 h 14.74398 z"
         id="path5197"
         inkscape:connector-curvature="0"
         sodipodi:nodetypes="cssscccscccsssscccccssccccccccccccccsccsccccccccccsscccscccccccsccsccccscssccccccccccccccccccsccssssccccssccccccccccssccscccsscccsccccsccccccccscccccccccccccccscccccccccccssccccccccscscccccccccccccccccccccsccccccccccccccsccccccccccsccccccccccccccsccccccsccccccsccccsccscccccccccsccccccsscccccsccsccssccscccccssccccccssccsscssccccccccccccsccccccccsccscscccsccscscscccsccccscccccsscccscccccccsccccccccccccccccccccccccccccccccccccccccccc" />
    </g>
  </g>
</svg>
